# File exported by Houdini 21.0.512 (www.sidefx.com)
# 32 points
# 180 vertices
# 60 primitives
# Bounds: [-0.927930415, -0.975683928, -0.814344347] to [0.927930415, 0.975683868, 0.814344347]
g 
v 0.354437858 0.487842113 -0.789344311
v 0.573492587 -0.186338872 -0.78934437
v 0 -0.603005826 -0.78934443
v -0.573492587 -0.186338872 -0.78934437
v -0.354437858 0.487842113 -0.789344311
v -0.573492587 0.789345026 -0.186338797
v -0.927930415 -0.301502913 -0.186338872
v 0 -0.975683928 -0.186338902
v 0.927930415 -0.301502913 -0.186338872
v 0.573492587 0.789345026 -0.186338797
v 0 0.975683868 0.186338902
v -0.927930415 0.301502913 0.186338872
v -0.573492587 -0.789345026 0.186338797
v 0.573492587 -0.789345026 0.186338797
v 0.927930415 0.301502913 0.186338872
v 0 0.603005826 0.78934443
v 0.573492587 0.186338872 0.78934437
v 0.354437858 -0.487842113 0.789344311
v -0.354437858 -0.487842113 0.789344311
v -0.573492587 0.186338872 0.78934437
v -1.50548213e-10 1.33483795e-07 -0.814344347
v -1.53463187e-09 0.728372335 -0.36418581
v 0.692723036 0.225079492 -0.36418584
v 0.428126395 -0.589265525 -0.364185899
v -0.428126395 -0.589265525 -0.364185899
v -0.692723036 0.225079492 -0.36418584
v -0.428126395 0.589265466 0.364185899
v -0.692723036 -0.225079492 0.36418584
v 4.38466208e-10 -0.728372335 0.36418581
v 0.692723036 -0.225079492 0.36418584
v 0.428126395 0.589265466 0.364185899
v 4.51644638e-10 -1.33581622e-07 0.814344347
vt 0.380889267 0.4765625 0
vt 0.342564791 0.621022046 0
vt 0.242229864 0.531741142 0
vt 0.242229864 0.710303009 0
vt 0.380889267 0.76548171 0
vt 0.466585577 0.621022105 0
vt 0.133901358 0.621022105 0
vt 0.0925235078 0.4765625 0
vt 0 0.621022105 0
vt 0.0925235078 0.76548171 0
vt 0.23277092 0.234708399 0
vt 0.337725729 0.144722372 0
vt 0.377836287 0.288901985 0
vt 0.467470258 0.143844172 0
vt 0.377801657 0 0
vt 0.232749492 0.0561571978 0
vt 0.766947269 0.602875352 0
vt 0.871030092 0.514300466 0
vt 0.91080761 0.659019113 0
vt 0.999696791 0.51516664 0
vt 0.910772979 0.370117188 0
vt 0.766925931 0.424324185 0
vt 0.847296417 0.288915396 0
vt 0.80755353 0.144732133 0
vt 0.936220229 0.143865943 0
vt 0.847330987 1.3433546e-05 0
vt 0.703470707 0.0561572388 0
vt 0.703449368 0.234708443 0
vt 0.521356344 0.526220083 0
vt 0.481280446 0.381497741 0
vt 0.611024916 0.382375926 0
vt 0.521391034 0.237318158 0
vt 0.376325607 0.291511655 0
vt 0.376304179 0.470062882 0
vt 0.272221386 0.381487966 0
vt 0.232478514 0.237304688 0
vt 0.143554688 0.38235414 0
vt 0.232443854 0.526206613 0
vt 0.59849453 0.144722387 0
vt 0.558418572 0 0
vt 0.46875 0.143844217 0
vt 0.558383942 0.288901985 0
vt 0.769569814 0.896341085 0
vt 0.728192031 0.75188148 0
vt 0.862093329 0.751881421 0
vt 0.769569814 0.607421875 0
vt 0.61986357 0.662600517 0
vt 0.61986357 0.841162324 0
vt 0.621895134 0.659032583 0
vt 0.661971033 0.514310241 0
vt 0.621860504 0.370130628 0
vt 0.532226562 0.515188396 0
vt 0.088923797 0.288915426 0
vt 0.128666669 0.144732103 0
vt 0.0888891667 1.34467391e-05 0
vt 0 0.143865943 0
vt 0.481204152 0.607421875 0
vt 0.519528627 0.75188148 0
vt 0.395507812 0.751881421 0
vt 0.481204152 0.896341085 0
vn 3.21169509e-08 9.88458879e-08 -1
vn -6.02192829e-09 9.41426634e-08 -1
vn -0 8.84104523e-08 -1
vn -0 8.84104523e-08 -1
vn -6.02192829e-09 9.41426634e-08 -1
vn -0 8.84104523e-08 -1
vn -0 8.84104523e-08 -1
vn -6.02192829e-09 9.41426634e-08 -1
vn -3.21169509e-08 9.88458879e-08 -1
vn -3.21169509e-08 9.88458879e-08 -1
vn -6.02192829e-09 9.41426634e-08 -1
vn -0 1.43051054e-07 -1
vn -0 1.43051054e-07 -1
vn -6.02192829e-09 9.41426634e-08 -1
vn 3.21169509e-08 9.88458879e-08 -1
vn -0 0.894427121 -0.447213829
vn -6.1385272e-08 0.89442718 -0.447213709
vn -0 0.894427121 -0.447213829
vn -0 0.894427121 -0.447213829
vn -6.1385272e-08 0.89442718 -0.447213709
vn -1.09129374e-07 0.894427121 -0.447213739
vn -1.09129374e-07 0.894427121 -0.447213739
vn -6.1385272e-08 0.89442718 -0.447213709
vn -0 0.89442718 -0.44721359
vn -0 0.89442718 -0.44721359
vn -6.1385272e-08 0.89442718 -0.447213709
vn 1.09129374e-07 0.894427121 -0.447213739
vn 1.09129374e-07 0.894427121 -0.447213739
vn -6.1385272e-08 0.89442718 -0.447213709
vn -0 0.894427121 -0.447213829
vn 0.850650728 0.276393145 -0.447213769
vn 0.850650847 0.276393205 -0.44721362
vn 0.850650609 0.276393265 -0.447213858
vn 0.850650609 0.276393265 -0.447213858
vn 0.850650847 0.276393205 -0.44721362
vn 0.850650787 0.276393294 -0.44721359
vn 0.850650787 0.276393294 -0.44721359
vn 0.850650847 0.276393205 -0.44721362
vn 0.850650787 0.276392937 -0.44721365
vn 0.850650787 0.276392937 -0.44721365
vn 0.850650847 0.276393205 -0.44721362
vn 0.850650728 0.276393116 -0.447213829
vn 0.850650728 0.276393116 -0.447213829
vn 0.850650847 0.276393205 -0.44721362
vn 0.850650728 0.276393145 -0.447213769
vn 0.525731206 -0.723606467 -0.447213978
vn 0.525731146 -0.723606646 -0.447213769
vn 0.525731206 -0.723606467 -0.447213948
vn 0.525731206 -0.723606467 -0.447213948
vn 0.525731146 -0.723606646 -0.447213769
vn 0.525731325 -0.723606646 -0.44721368
vn 0.525731325 -0.723606646 -0.44721368
vn 0.525731146 -0.723606646 -0.447213769
vn 0.525730789 -0.723606884 -0.447213829
vn 0.525730789 -0.723606884 -0.447213829
vn 0.525731146 -0.723606646 -0.447213769
vn 0.525731027 -0.723606586 -0.447214305
vn 0.525731027 -0.723606586 -0.447214305
vn 0.525731146 -0.723606646 -0.447213769
vn 0.525731206 -0.723606467 -0.447213978
vn -0.525730789 -0.723606884 -0.447213829
vn -0.525731206 -0.723606408 -0.447213948
vn -0.525731325 -0.723606646 -0.44721368
vn -0.525731325 -0.723606646 -0.44721368
vn -0.525731206 -0.723606408 -0.447213948
vn -0.525731206 -0.723606467 -0.447213948
vn -0.525731206 -0.723606467 -0.447213948
vn -0.525731206 -0.723606408 -0.447213948
vn -0.525731206 -0.723606467 -0.447213978
vn -0.525731206 -0.723606467 -0.447213978
vn -0.525731206 -0.723606408 -0.447213948
vn -0.525731027 -0.723606586 -0.447214305
vn -0.525731027 -0.723606586 -0.447214305
vn -0.525731206 -0.723606408 -0.447213948
vn -0.525730789 -0.723606884 -0.447213829
vn -0.850650787 0.276392937 -0.44721365
vn -0.850650728 0.276393205 -0.447213799
vn -0.850650787 0.276393294 -0.44721359
vn -0.850650787 0.276393294 -0.44721359
vn -0.850650728 0.276393205 -0.447213799
vn -0.850650609 0.276393265 -0.447213858
vn -0.850650609 0.276393265 -0.447213858
vn -0.850650728 0.276393205 -0.447213799
vn -0.850650728 0.276393145 -0.447213769
vn -0.850650728 0.276393145 -0.447213769
vn -0.850650728 0.276393205 -0.447213799
vn -0.850650728 0.276393116 -0.447213829
vn -0.850650728 0.276393116 -0.447213829
vn -0.850650728 0.276393205 -0.447213799
vn -0.850650787 0.276392937 -0.44721365
vn -0.525731206 0.723606467 0.447213978
vn -0.525730968 0.723606765 0.447213799
vn -0.525730968 0.723606586 0.447214335
vn -0.525730968 0.723606586 0.447214335
vn -0.525730968 0.723606765 0.447213799
vn -0.525730789 0.723606944 0.447213829
vn -0.525730789 0.723606944 0.447213829
vn -0.525730968 0.723606765 0.447213799
vn -0.525731266 0.723606646 0.44721365
vn -0.525731266 0.723606646 0.44721365
vn -0.525730968 0.723606765 0.447213799
vn -0.525731206 0.723606467 0.447213948
vn -0.525731206 0.723606467 0.447213948
vn -0.525730968 0.723606765 0.447213799
vn -0.525731206 0.723606467 0.447213978
vn -0.850650728 -0.276393145 0.447213769
vn -0.850650847 -0.276393056 0.44721365
vn -0.850650728 -0.276393116 0.447213829
vn -0.850650728 -0.276393116 0.447213829
vn -0.850650847 -0.276393056 0.44721365
vn -0.850650787 -0.276392937 0.44721365
vn -0.850650787 -0.276392937 0.44721365
vn -0.850650847 -0.276393056 0.44721365
vn -0.850650787 -0.276393294 0.44721359
vn -0.850650787 -0.276393294 0.44721359
vn -0.850650847 -0.276393056 0.44721365
vn -0.850650609 -0.276393265 0.447213858
vn -0.850650609 -0.276393265 0.447213858
vn -0.850650847 -0.276393056 0.44721365
vn -0.850650728 -0.276393145 0.447213769
vn -3.11798196e-08 -0.894427121 0.447213769
vn 1.75386479e-08 -0.89442718 0.447213739
vn -0 -0.89442718 0.44721368
vn -0 -0.89442718 0.44721368
vn 1.75386479e-08 -0.89442718 0.447213739
vn 3.11798196e-08 -0.894427121 0.447213769
vn 3.11798196e-08 -0.894427121 0.447213769
vn 1.75386479e-08 -0.89442718 0.447213739
vn -0 -0.894427121 0.447213829
vn -0 -0.894427121 0.447213829
vn 1.75386479e-08 -0.89442718 0.447213739
vn -0 -0.894427121 0.447213829
vn -0 -0.894427121 0.447213829
vn 1.75386479e-08 -0.89442718 0.447213739
vn -3.11798196e-08 -0.894427121 0.447213769
vn 0.850650787 -0.276392937 0.44721365
vn 0.850650787 -0.276393145 0.447213739
vn 0.850650728 -0.276393116 0.447213829
vn 0.850650728 -0.276393116 0.447213829
vn 0.850650787 -0.276393145 0.447213739
vn 0.850650728 -0.276393145 0.447213769
vn 0.850650728 -0.276393145 0.447213769
vn 0.850650787 -0.276393145 0.447213739
vn 0.850650609 -0.276393265 0.447213858
vn 0.850650609 -0.276393265 0.447213858
vn 0.850650787 -0.276393145 0.447213739
vn 0.850650787 -0.276393294 0.44721359
vn 0.850650787 -0.276393294 0.44721359
vn 0.850650787 -0.276393145 0.447213739
vn 0.850650787 -0.276392937 0.44721365
vn 0.525730789 0.723606944 0.447213829
vn 0.525731206 0.723606467 0.447213948
vn 0.525730968 0.723606586 0.447214335
vn 0.525730968 0.723606586 0.447214335
vn 0.525731206 0.723606467 0.447213948
vn 0.525731206 0.723606467 0.447213978
vn 0.525731206 0.723606467 0.447213978
vn 0.525731206 0.723606467 0.447213948
vn 0.525731206 0.723606467 0.447213948
vn 0.525731206 0.723606467 0.447213948
vn 0.525731206 0.723606467 0.447213948
vn 0.525731266 0.723606646 0.44721365
vn 0.525731266 0.723606646 0.44721365
vn 0.525731206 0.723606467 0.447213948
vn 0.525730789 0.723606944 0.447213829
vn -3.21169509e-08 -9.88458879e-08 1
vn 1.80657853e-08 -9.80559491e-08 1
vn -0 -1.43051054e-07 1
vn -0 -1.43051054e-07 1
vn 1.80657853e-08 -9.80559491e-08 1
vn 3.21169509e-08 -9.88458879e-08 1
vn 3.21169509e-08 -9.88458879e-08 1
vn 1.80657853e-08 -9.80559491e-08 1
vn -0 -8.84104523e-08 1
vn -0 -8.84104523e-08 1
vn 1.80657853e-08 -9.80559491e-08 1
vn -0 -8.84104523e-08 1
vn -0 -8.84104523e-08 1
vn 1.80657853e-08 -9.80559491e-08 1
vn -3.21169509e-08 -9.88458879e-08 1
g 
usemtl /obj/geo1/uvquickshade1/shop_definition/texture_material
f 2/1/1 21/2/2 1/3/3
f 1/3/4 21/2/5 5/4/6
f 5/4/7 21/2/8 4/5/9
f 4/5/10 21/2/11 3/6/12
f 3/6/13 21/2/14 2/1/15
f 5/4/16 22/7/17 1/3/18
f 1/3/19 22/7/20 10/8/21
f 10/8/22 22/7/23 11/9/24
f 11/9/25 22/7/26 6/10/27
f 6/10/28 22/7/29 5/4/30
f 10/11/31 23/12/32 1/13/33
f 1/13/34 23/12/35 2/14/36
f 2/14/37 23/12/38 9/15/39
f 9/15/40 23/12/41 15/16/42
f 15/16/43 23/12/44 10/11/45
f 9/17/46 24/18/47 2/19/48
f 2/19/49 24/18/50 3/20/51
f 3/20/52 24/18/53 8/21/54
f 8/21/55 24/18/56 14/22/57
f 14/22/58 24/18/59 9/17/60
f 8/23/61 25/24/62 3/25/63
f 3/25/64 25/24/65 4/26/66
f 4/26/67 25/24/68 7/27/69
f 7/27/70 25/24/71 13/28/72
f 13/28/73 25/24/74 8/23/75
f 7/29/76 26/30/77 4/31/78
f 4/31/79 26/30/80 5/32/81
f 5/32/82 26/30/83 6/33/84
f 6/33/85 26/30/86 12/34/87
f 12/34/88 26/30/89 7/29/90
f 12/34/91 27/35/92 6/33/93
f 6/33/94 27/35/95 11/36/96
f 11/36/97 27/35/98 16/37/99
f 16/37/100 27/35/101 20/38/102
f 20/38/103 27/35/104 12/34/105
f 13/28/106 28/39/107 7/27/108
f 7/27/109 28/39/110 12/40/111
f 12/40/112 28/39/113 20/41/114
f 20/41/115 28/39/116 19/42/117
f 19/42/118 28/39/119 13/28/120
f 14/43/121 29/44/122 8/45/123
f 8/45/124 29/44/125 13/46/126
f 13/46/127 29/44/128 19/47/129
f 19/47/130 29/44/131 18/48/132
f 18/48/133 29/44/134 14/43/135
f 15/49/136 30/50/137 9/17/138
f 9/17/139 30/50/140 14/22/141
f 14/22/142 30/50/143 18/51/144
f 18/51/145 30/50/146 17/52/147
f 17/52/148 30/50/149 15/49/150
f 11/53/151 31/54/152 10/11/153
f 10/11/154 31/54/155 15/16/156
f 15/16/157 31/54/158 17/55/159
f 17/55/160 31/54/161 16/56/162
f 16/56/163 31/54/164 11/53/165
f 20/57/166 32/58/167 16/59/168
f 16/59/169 32/58/170 17/60/171
f 17/60/172 32/58/173 18/48/174
f 18/48/175 32/58/176 19/47/177
f 19/47/178 32/58/179 20/57/180
