# File exported by Houdini 21.0.512 (www.sidefx.com)
# 12 points
# 60 vertices
# 20 primitives
# Bounds: [-0.850650847, -0.894427359, -1] to [0.850650847, 0.894427359, 1]
g 
v 0 0 -1
v 0 0.894427359 -0.447213143
v 0.850650847 0.276393682 -0.447213203
v 0.525731206 -0.723606944 -0.447213262
v -0.525731206 -0.723606944 -0.447213262
v -0.850650847 0.276393682 -0.447213203
v -0.525731206 0.723606944 0.447213262
v -0.850650847 -0.276393682 0.447213203
v 0 -0.894427359 0.447213143
v 0.850650847 -0.276393682 0.447213203
v 0.525731206 0.723606944 0.447213262
v 0 0 1
vt 0 0.595279515 0
vt 0.187928036 0.534217894 0
vt 0.187928036 0.731817126 0
vt 0.0717821047 0.374356717 0
vt 0.304073989 0.374356717 0
vt 0.375856072 0.595279515 0
vt 0.464534432 0.374356657 0
vt 0.58068037 0.57195574 0
vt 0.392752349 0.57195574 0
vt 0.983103752 0.0987995416 0
vt 0.785504699 0.220922783 0
vt 0.785504699 0 0
vt 0.58068037 0.197599053 0
vt 0.464534432 0 0
vt 0.696826339 0 0
vt 0.785504699 0.435418099 0
vt 0.983103752 0.336618543 0
vt 0.983103752 0.557541311 0
vt 0.696826339 0.374356657 0
vt 0.768608391 0.57195574 0
vt 0.983103752 0.319722325 0
vt 0.392752349 0.197599068 0
vt 0.768608391 0.197599068 0
vt 0.785504699 0.656340897 0
vt 0.0717821047 0.357460439 0
vt 0.187928036 0.197599262 0
vt 0.304073989 0.357460439 0
vt 0.375856072 0.136537626 0
vt 0.187928036 0 0
vt 0 0.136537626 0
vn 0.356822014 0.491123706 -0.794654369
vn 0.356822044 0.491123706 -0.794654369
vn 0.356822014 0.491123706 -0.794654369
vn 0.577350557 -0.187592357 -0.79465431
vn 0.577350557 -0.187592357 -0.79465425
vn 0.577350557 -0.187592357 -0.79465431
vn 0 -0.607062221 -0.794654429
vn 0 -0.607062221 -0.794654429
vn 0 -0.607062221 -0.794654429
vn -0.577350557 -0.187592357 -0.79465431
vn -0.577350557 -0.187592357 -0.79465425
vn -0.577350557 -0.187592357 -0.79465431
vn -0.356822014 0.491123706 -0.794654369
vn -0.356822044 0.491123706 -0.794654369
vn -0.356822014 0.491123706 -0.794654369
vn -0.577349961 0.794654548 -0.187592506
vn -0.57735002 0.794654727 -0.187592536
vn -0.57735002 0.794654667 -0.187592536
vn -0.934172392 -0.303530753 -0.187592804
vn -0.934172392 -0.303530753 -0.18759279
vn -0.934172451 -0.303530753 -0.187592804
vn -0 -0.982246995 -0.187592685
vn -0 -0.982246995 -0.187592685
vn -0 -0.982246995 -0.187592685
vn 0.934172392 -0.303530753 -0.187592804
vn 0.934172451 -0.303530753 -0.187592804
vn 0.934172392 -0.303530753 -0.18759279
vn 0.577349961 0.794654548 -0.187592521
vn 0.57735002 0.794654667 -0.187592551
vn 0.57735002 0.794654727 -0.187592551
vn 0 0.982246995 0.187592685
vn 0 0.982246995 0.187592685
vn 0 0.982246995 0.187592685
vn -0.934172451 0.303530753 0.187592804
vn -0.934172392 0.303530753 0.187592804
vn -0.934172392 0.303530753 0.18759279
vn -0.57735002 -0.794654667 0.187592536
vn -0.577349961 -0.794654548 0.187592506
vn -0.57735002 -0.794654727 0.187592536
vn 0.57735002 -0.794654727 0.187592536
vn 0.577349961 -0.794654548 0.187592506
vn 0.57735002 -0.794654667 0.187592536
vn 0.934172392 0.303530753 0.18759279
vn 0.934172392 0.303530753 0.187592804
vn 0.934172451 0.303530753 0.187592804
vn -0 0.607062221 0.794654429
vn -0 0.607062221 0.794654429
vn -0 0.607062221 0.794654429
vn 0.577350557 0.187592357 0.79465431
vn 0.577350557 0.187592357 0.79465425
vn 0.577350557 0.187592357 0.79465431
vn 0.356822014 -0.491123706 0.794654369
vn 0.356822044 -0.491123706 0.794654369
vn 0.356822014 -0.491123706 0.794654369
vn -0.356822014 -0.491123706 0.794654369
vn -0.356822044 -0.491123706 0.794654369
vn -0.356822014 -0.491123706 0.794654369
vn -0.577350557 0.187592357 0.79465431
vn -0.577350557 0.187592357 0.79465425
vn -0.577350557 0.187592357 0.79465431
g 
f 3/1/1 1/2/2 2/3/3
f 4/4/4 1/2/5 3/1/6
f 5/5/7 1/2/8 4/4/9
f 6/6/10 1/2/11 5/5/12
f 2/3/13 1/2/14 6/6/15
f 7/7/16 2/8/17 6/9/18
f 8/10/19 6/11/20 5/12/21
f 9/13/22 5/14/23 4/15/24
f 10/16/25 4/17/26 3/18/27
f 11/19/28 3/20/29 2/8/30
f 11/19/31 2/8/32 7/7/33
f 7/21/34 6/11/35 8/10/36
f 8/22/37 5/14/38 9/13/39
f 9/13/40 4/15/41 10/23/42
f 10/16/43 3/18/44 11/24/45
f 7/25/46 12/26/47 11/27/48
f 11/27/49 12/26/50 10/28/51
f 10/28/52 12/26/53 9/29/54
f 9/29/55 12/26/56 8/30/57
f 8/30/58 12/26/59 7/25/60
