# File exported by Houdini 21.0.512 (www.sidefx.com)
# 8 points
# 36 vertices
# 12 primitives
# Bounds: [-0.942810297, -0.348329693, -0.816497624] to [0.471405149, 1, 0.816497624]
g 
v 0 1 0
v -0.942810297 -0.333329707 0
v 0.471405149 -0.333329707 0.816497624
v 0.471405149 -0.333329707 -0.816497624
v 0.328412235 0.116113544 0
v -0.164206117 0.116113544 -0.284413308
v -0.164206117 0.116113544 0.284413308
v 0 -0.348329693 0
vt 0.996500909 0.530574918 0
vt 0.671590447 0.353712976 0
vt 0.671590626 0 0
vt 0.346679688 0.53057456 0
vt 0.670618117 0.991721451 0
vt 0.670617878 0.685391605 0
vt 0.995522678 0.532226562 0
vt 0.345703125 0.53223145 0
vt 0.021484375 0.997575939 0
vt 0.346399188 0.844415784 0
vt 0.671303928 0.997580886 0
vt 0.346399486 0.538085938 0
vt 0.649821341 0 0
vt 0.324907422 0.187585384 0
vt 0 3.43612547e-17 0
vt 0.324910671 0.562761784 0
vn 0.942808628 0.333334565 -0
vn 0.942808628 0.333334565 0
vn 0.942808568 0.333334565 -0
vn 0.942808568 0.333334565 -0
vn 0.942808628 0.333334565 0
vn 0.942808628 0.333334565 -0
vn 0.942808628 0.333334565 -0
vn 0.942808628 0.333334565 0
vn 0.942808628 0.333334565 -0
vn -0.471404254 0.333334535 -0.816496193
vn -0.471404254 0.333334535 -0.816496193
vn -0.471404225 0.333334535 -0.816496253
vn -0.471404225 0.333334535 -0.816496253
vn -0.471404254 0.333334535 -0.816496193
vn -0.471404254 0.333334535 -0.816496193
vn -0.471404254 0.333334535 -0.816496193
vn -0.471404254 0.333334535 -0.816496193
vn -0.471404254 0.333334535 -0.816496193
vn -0.471404254 0.333334535 0.816496193
vn -0.471404254 0.333334535 0.816496193
vn -0.471404225 0.333334535 0.816496253
vn -0.471404225 0.333334535 0.816496253
vn -0.471404254 0.333334535 0.816496193
vn -0.471404254 0.333334535 0.816496193
vn -0.471404254 0.333334535 0.816496193
vn -0.471404254 0.333334535 0.816496193
vn -0.471404254 0.333334535 0.816496193
vn 0 -1 0
vn 0 -1 0
vn 0 -1 0
vn 0 -1 0
vn 0 -1 0
vn 0 -1 0
vn 0 -1 0
vn 0 -1 0
vn 0 -1 0
g 
usemtl /obj/geo1/uvquickshade4/shop_definition/texture_material
f 3/1/1 5/2/2 1/3/3
f 1/3/4 5/2/5 4/4/6
f 4/4/7 5/2/8 3/1/9
f 4/5/10 6/6/11 1/7/12
f 1/7/13 6/6/14 2/8/15
f 2/8/16 6/6/17 4/5/18
f 2/9/19 7/10/20 1/11/21
f 1/11/22 7/10/23 3/12/24
f 3/12/25 7/10/26 2/9/27
f 4/13/28 8/14/29 2/15/30
f 2/15/31 8/14/32 3/16/33
f 3/16/34 8/14/35 4/13/36
