# File exported by Houdini 21.0.512 (www.sidefx.com)
# 14 points
# 72 vertices
# 24 primitives
# Bounds: [-0.519999981, -0.519999981, -0.519999981] to [0.519999981, 0.519999981, 0.519999981]
g 
v -0.5 -0.5 -0.5
v 0.5 -0.5 -0.5
v 0.5 -0.5 0.5
v -0.5 -0.5 0.5
v -0.5 0.5 -0.5
v 0.5 0.5 -0.5
v 0.5 0.5 0.5
v -0.5 0.5 0.5
v 0 0 -0.519999981
v 0.519999981 0 0
v 0 0 0.519999981
v -0.519999981 0 0
v 0 -0.519999981 0
v 0 0.519999981 0
vt 0 0.333007812 0
vt 0.165950507 0.498958319 0
vt 0 0.664908826 0
vt 0.331901103 0.664908826 0
vt 0.331901103 0.333007812 0
vt 0.666015625 0.333007812 0
vt 0.831966162 0.498958319 0
vt 0.666015625 0.664908826 0
vt 0.997916698 0.664908826 0
vt 0.997916698 0.333007812 0
vt 0.333007812 0.331901044 0
vt 0.498958319 0.165950522 0
vt 0.664908946 0.331901044 0
vt 0.664908946 0 0
vt 0.333007812 0 0
vt 0 0 0
vt 0.165950507 0.165950507 0
vt 0 0.331901103 0
vt 0.331901103 0.331901103 0
vt 0.331901103 0 0
vt 0.997916758 0.331901044 0
vt 0.831966162 0.165950522 0
vt 0.997916758 0 0
vt 0.666015625 0 0
vt 0.666015625 0.331901044 0
vt 0.664908886 0.664908886 0
vt 0.498958349 0.498958349 0
vt 0.664908886 0.333007812 0
vt 0.333007812 0.333007812 0
vt 0.333007812 0.664908886 0
vn 0.0199919902 -0.0199919902 -0.999600291
vn 0 0 -1
vn 0.0199919902 0.0199919902 -0.999600291
vn 0.0199919902 0.0199919902 -0.999600291
vn 0 0 -1
vn -0.0199919902 0.0199919902 -0.999600291
vn -0.0199919902 0.0199919902 -0.999600291
vn 0 0 -1
vn -0.0199919902 -0.0199919902 -0.999600291
vn -0.0199919902 -0.0199919902 -0.999600291
vn 0 0 -1
vn 0.0199919902 -0.0199919902 -0.999600291
vn 0.999600291 -0.0199919902 0.0199919902
vn 1 0 0
vn 0.999600291 0.0199919902 0.0199919902
vn 0.999600291 0.0199919902 0.0199919902
vn 1 0 0
vn 0.999600291 0.0199919902 -0.0199919902
vn 0.999600291 0.0199919902 -0.0199919902
vn 1 0 0
vn 0.999600291 -0.0199919902 -0.0199919902
vn 0.999600291 -0.0199919902 -0.0199919902
vn 1 0 0
vn 0.999600291 -0.0199919902 0.0199919902
vn -0.0199919902 -0.0199919902 0.999600291
vn 0 0 1
vn -0.0199919902 0.0199919902 0.999600291
vn -0.0199919902 0.0199919902 0.999600291
vn 0 0 1
vn 0.0199919902 0.0199919902 0.999600291
vn 0.0199919902 0.0199919902 0.999600291
vn 0 0 1
vn 0.0199919902 -0.0199919902 0.999600291
vn 0.0199919902 -0.0199919902 0.999600291
vn 0 0 1
vn -0.0199919902 -0.0199919902 0.999600291
vn -0.999600291 -0.0199919902 -0.0199919902
vn -1 0 0
vn -0.999600291 0.0199919902 -0.0199919902
vn -0.999600291 0.0199919902 -0.0199919902
vn -1 0 0
vn -0.999600291 0.0199919902 0.0199919902
vn -0.999600291 0.0199919902 0.0199919902
vn -1 0 0
vn -0.999600291 -0.0199919902 0.0199919902
vn -0.999600291 -0.0199919902 0.0199919902
vn -1 0 0
vn -0.999600291 -0.0199919902 -0.0199919902
vn 0.0199919902 -0.999600291 0.0199919902
vn 0 -1 0
vn 0.0199919902 -0.999600291 -0.0199919902
vn 0.0199919902 -0.999600291 -0.0199919902
vn 0 -1 0
vn -0.0199919902 -0.999600291 -0.0199919902
vn -0.0199919902 -0.999600291 -0.0199919902
vn 0 -1 0
vn -0.0199919902 -0.999600291 0.0199919902
vn -0.0199919902 -0.999600291 0.0199919902
vn 0 -1 0
vn 0.0199919902 -0.999600291 0.0199919902
vn 0.0199919902 0.999600291 -0.0199919902
vn 0 1 0
vn 0.0199919902 0.999600291 0.0199919902
vn 0.0199919902 0.999600291 0.0199919902
vn 0 1 0
vn -0.0199919902 0.999600291 0.0199919902
vn -0.0199919902 0.999600291 0.0199919902
vn 0 1 0
vn -0.0199919902 0.999600291 -0.0199919902
vn -0.0199919902 0.999600291 -0.0199919902
vn 0 1 0
vn 0.0199919902 0.999600291 -0.0199919902
g 
usemtl /obj/geo1/uvquickshade2/shop_definition/texture_material
f 2/1/1 9/2/2 6/3/3
f 6/3/4 9/2/5 5/4/6
f 5/4/7 9/2/8 1/5/9
f 1/5/10 9/2/11 2/1/12
f 3/6/13 10/7/14 7/8/15
f 7/8/16 10/7/17 6/9/18
f 6/9/19 10/7/20 2/10/21
f 2/10/22 10/7/23 3/6/24
f 4/11/25 11/12/26 8/13/27
f 8/13/28 11/12/29 7/14/30
f 7/14/31 11/12/32 3/15/33
f 3/15/34 11/12/35 4/11/36
f 1/16/37 12/17/38 5/18/39
f 5/18/40 12/17/41 8/19/42
f 8/19/43 12/17/44 4/20/45
f 4/20/46 12/17/47 1/16/48
f 3/21/49 13/22/50 2/23/51
f 2/23/52 13/22/53 1/24/54
f 1/24/55 13/22/56 4/25/57
f 4/25/58 13/22/59 3/21/60
f 6/26/61 14/27/62 7/28/63
f 7/28/64 14/27/65 8/29/66
f 8/29/67 14/27/68 5/30/69
f 5/30/70 14/27/71 6/26/72
