# File exported by Houdini 21.0.512 (www.sidefx.com)
# 6 points
# 24 vertices
# 8 primitives
# Bounds: [-1, -1, -1] to [1, 1, 1]
g 
v 0 0 -1
v 1 0 0
v 0 0 1
v -1 0 0
v 0 -1 0
v 0 1 0
vt 0.580670357 0.167625055 0
vt 0.290335178 0.404682726 0
vt 0.290335178 0 0
vt 0.422338843 0.307617188 0
vt 0.518890679 0.628663003 0
vt 0.125 0.53582865 0
vt 0.902807653 0.362304688 0
vt 0.999359429 0.683350503 0
vt 0.60546875 0.59051609 0
vt 0 0.167625055 0
vt 0.999615669 0.303463876 0
vt 0.709280491 0.471088946 0
vt 0.709280491 0.06640625 0
vt 0.297338843 0.921631753 0
vt 0 0.693420291 0
vt 0.393890709 0.600585938 0
vt 0.657690406 0.947998941 0
vt 0.360351562 0.719787478 0
vt 0.754242241 0.626953125 0
vt 0.418945312 0.303463876 0
vn -0.577350259 -0.577350259 -0.577350259
vn -0.577350259 -0.577350259 -0.577350259
vn -0.577350259 -0.577350259 -0.577350259
vn 0.577350259 -0.577350259 -0.577350259
vn 0.577350259 -0.577350259 -0.577350259
vn 0.577350259 -0.577350259 -0.577350259
vn 0.577350259 -0.577350259 0.577350259
vn 0.577350259 -0.577350259 0.577350259
vn 0.577350259 -0.577350259 0.577350259
vn -0.577350259 -0.577350259 0.577350259
vn -0.577350259 -0.577350259 0.577350259
vn -0.577350259 -0.577350259 0.577350259
vn -0.577350259 0.577350259 -0.577350259
vn -0.577350259 0.577350259 -0.577350259
vn -0.577350259 0.577350259 -0.577350259
vn 0.577350259 0.577350259 -0.577350259
vn 0.577350259 0.577350259 -0.577350259
vn 0.577350259 0.577350259 -0.577350259
vn 0.577350259 0.577350259 0.577350259
vn 0.577350259 0.577350259 0.577350259
vn 0.577350259 0.577350259 0.577350259
vn -0.577350259 0.577350259 0.577350259
vn -0.577350259 0.577350259 0.577350259
vn -0.577350259 0.577350259 0.577350259
g 
usemtl /obj/geo1/uvquickshade3/shop_definition/texture_material
f 1/1/1 5/2/2 4/3/3
f 1/4/4 2/5/5 5/6/6
f 2/7/7 3/8/8 5/9/9
f 3/10/10 4/3/11 5/2/12
f 1/11/13 4/12/14 6/13/15
f 1/14/16 6/15/17 2/16/18
f 2/17/19 6/18/20 3/19/21
f 3/20/22 6/13/23 4/12/24
